<?xml version="1.0" standalone="no"?>
<!DOCTYPE svg PUBLIC "-//W3C//DTD SVG 20010904//EN"
 "http://www.w3.org/TR/2001/REC-SVG-20010904/DTD/svg10.dtd">
<svg version="1.0" xmlns="http://www.w3.org/2000/svg"
 width="16.000000pt" height="16.000000pt" viewBox="0 0 16.000000 16.000000"
 preserveAspectRatio="xMidYMid meet">
<metadata>
Created by potrace 1.11, written by Peter Selinger 2001-2013
</metadata>
<g transform="translate(0.000000,16.000000) scale(0.002286,-0.002286)"
fill="#000000" stroke="none">
<path d="M3457 6253 c-13 -21 -56 -96 -95 -168 -132 -241 -166 -407 -109 -526
30 -63 40 -76 87 -111 74 -54 181 -66 262 -28 96 45 166 129 188 225 22 97
-54 288 -231 584 -43 73 -68 78 -102 24z m81 -200 c34 -49 110 -206 132 -277
20 -62 21 -74 10 -123 -14 -62 -56 -117 -106 -138 -46 -19 -139 -13 -172 12
-67 48 -90 167 -56 284 14 48 101 224 127 257 16 20 44 14 65 -15z"/>
<path d="M3030 6145 c-30 -7 -91 -20 -134 -29 -394 -85 -794 -276 -1116 -533
-112 -89 -330 -305 -419 -416 -431 -535 -668 -1215 -656 -1882 4 -251 52 -499
156 -815 49 -149 72 -190 105 -190 22 0 56 40 51 58 -3 10 -19 55 -36 102
-109 299 -171 628 -175 933 -1 91 8 270 17 322 3 17 8 52 12 78 8 67 59 286
88 382 203 660 638 1208 1237 1557 280 164 664 299 898 317 104 9 125 21 125
72 0 58 -42 70 -153 44z"/>
<path d="M3800 6140 c-20 -20 -19 -52 0 -75 6 -7 48 -18 93 -24 574 -82 1099
-341 1492 -736 439 -441 723 -1013 800 -1611 13 -104 14 -511 2 -574 -3 -14
-13 -74 -22 -135 -27 -176 -81 -375 -152 -559 -32 -83 -33 -90 -18 -112 17
-26 65 -33 83 -11 13 15 93 252 126 372 61 223 102 510 100 705 -1 59 -13 268
-18 300 -2 14 -7 48 -11 75 -13 98 -17 121 -36 210 -90 408 -301 846 -576
1193 -82 102 -265 291 -358 369 -356 297 -791 497 -1295 597 -187 37 -189 37
-210 16z"/>
<path d="M2800 5377 c-130 -39 -194 -87 -462 -351 -146 -143 -171 -149 -281
-67 -67 50 -109 63 -205 62 -139 -1 -228 -45 -272 -135 -26 -54 -29 -150 -7
-193 41 -78 132 -132 238 -140 77 -6 133 9 249 68 137 71 174 48 179 -112 5
-163 -64 -333 -182 -452 -83 -83 -104 -99 -172 -134 -65 -34 -126 -36 -156 -6
-21 21 -24 52 -16 148 1 11 -2 51 -6 88 -12 110 -95 218 -191 250 -54 18 -136
13 -183 -9 -87 -43 -134 -188 -104 -319 7 -33 46 -77 88 -101 139 -80 199
-163 207 -288 3 -40 -25 -168 -54 -245 -15 -43 -31 -100 -35 -127 -12 -93 -15
-250 -4 -289 34 -126 126 -245 236 -304 31 -17 93 -42 137 -56 97 -29 149 -69
191 -146 35 -65 43 -159 18 -235 -22 -72 -21 -216 1 -284 69 -202 274 -331
662 -415 181 -40 200 -53 195 -138 -10 -157 8 -225 85 -333 41 -57 108 -99
169 -107 44 -6 130 17 169 44 58 39 80 91 79 180 -2 158 -51 233 -199 305
-107 53 -128 73 -113 113 25 65 183 166 299 190 111 23 293 7 385 -34 59 -26
170 -108 191 -141 9 -13 13 -31 10 -41 -3 -10 -50 -44 -103 -75 -130 -76 -185
-135 -209 -228 -31 -116 12 -243 97 -287 93 -48 224 -20 302 66 63 69 82 123
79 220 -1 46 3 100 9 120 27 85 124 144 274 166 118 18 297 84 396 148 77 49
151 133 179 203 29 73 36 229 14 320 -24 101 -20 157 15 229 46 92 98 135 208
167 49 15 110 39 137 54 137 77 236 251 241 428 3 83 -12 161 -60 326 -64 216
-65 224 -56 306 2 21 53 63 108 91 60 30 150 121 180 181 27 55 25 193 -4 247
-74 139 -244 149 -377 21 -72 -69 -79 -91 -85 -259 -5 -116 -9 -150 -21 -157
-60 -38 -197 21 -313 133 -84 83 -165 231 -187 345 -17 84 -8 207 18 241 30
41 62 38 179 -21 105 -52 107 -53 197 -53 99 0 144 16 203 72 81 77 99 150 60
237 -54 117 -139 162 -291 154 -99 -5 -150 -23 -222 -78 -75 -58 -123 -46
-214 53 -201 221 -365 347 -500 384 -66 19 -165 24 -224 12 -76 -16 -173 -72
-248 -143 -76 -71 -139 -98 -236 -98 -99 -1 -130 14 -218 100 -109 107 -183
141 -319 147 -61 3 -98 -2 -155 -18z m282 -115 c86 -43 108 -63 111 -96 2 -34
2 -34 -142 -80 -217 -69 -374 -180 -441 -310 -59 -118 -42 -211 65 -342 29
-35 42 -60 38 -70 -3 -9 -41 -52 -84 -95 -159 -161 -257 -345 -329 -619 l-22
-86 -66 23 c-107 37 -207 27 -285 -29 -59 -42 -118 -152 -135 -252 -15 -90 -6
-238 22 -346 35 -135 38 -157 20 -174 -11 -11 -22 -12 -51 -4 -86 23 -146 68
-197 145 -88 133 -85 254 16 633 34 130 58 184 89 201 12 6 53 20 93 30 280
76 443 232 526 504 47 153 48 248 4 337 -14 30 -27 75 -29 103 -5 77 27 126
195 288 229 222 330 281 467 274 56 -3 86 -11 135 -35z m1124 4 c30 -14 89
-49 132 -78 127 -87 392 -365 392 -411 0 -12 -10 -42 -21 -67 -64 -139 -69
-278 -16 -436 56 -162 155 -295 285 -382 66 -45 119 -67 220 -93 132 -34 168
-80 207 -269 2 -8 17 -69 33 -135 53 -210 56 -249 29 -361 -11 -43 -57 -120
-97 -162 -63 -65 -180 -115 -207 -89 -10 11 -5 65 11 115 8 26 18 61 20 77 3
17 10 54 16 83 11 61 14 185 5 252 -13 97 -67 194 -133 240 -59 41 -181 56
-291 36 -57 -11 -69 -1 -91 77 -80 280 -164 435 -331 612 -101 107 -99 99 -32
182 50 62 86 147 85 201 -2 86 -30 140 -117 228 -93 94 -190 147 -376 209 -63
21 -118 41 -124 46 -15 15 99 115 158 139 69 27 165 22 243 -14z m-619 -234
c30 -21 38 -42 93 -233 17 -58 28 -113 24 -122 -8 -22 -56 -35 -135 -36 -36
-1 -77 -4 -90 -7 -13 -2 -58 -5 -99 -5 -66 0 -77 3 -93 22 -22 28 -18 49 29
146 19 40 39 98 44 130 6 32 18 69 28 83 38 51 142 63 199 22z m-343 -25 c14
-10 18 -26 18 -64 0 -174 -272 -456 -433 -448 -114 6 -176 102 -135 208 58
153 456 373 550 304z m679 -8 c157 -52 328 -186 377 -294 22 -47 20 -123 -4
-160 -82 -124 -336 -20 -478 196 -42 63 -78 162 -78 213 0 67 68 84 183 45z
m-1986 -90 c115 -27 159 -97 110 -172 -17 -26 -155 -87 -198 -87 -53 0 -129
32 -154 64 -28 37 -33 97 -13 142 25 54 146 79 255 53z m3321 -4 c74 -30 97
-142 41 -201 -36 -38 -119 -59 -186 -45 -112 22 -165 59 -177 122 -5 30 17 79
42 94 72 43 210 58 280 30z m-1616 -380 c83 -11 89 -12 153 -30 89 -25 222
-83 295 -129 330 -207 535 -587 524 -975 -6 -234 -63 -418 -188 -605 -175
-261 -447 -434 -765 -487 -65 -11 -236 -13 -301 -3 -178 25 -407 118 -522 212
-118 96 -146 124 -215 213 -114 148 -185 305 -217 484 -15 85 -18 121 -18 214
2 306 119 583 336 796 185 183 405 285 686 319 29 3 179 -3 232 -9z m-2124
-236 c36 -18 49 -32 69 -75 21 -46 24 -69 24 -150 -1 -76 -4 -101 -17 -116
-59 -64 -226 58 -259 190 -15 58 -1 130 28 154 31 24 101 23 155 -3z m4114 7
c44 -33 56 -131 25 -196 -58 -121 -200 -207 -250 -152 -22 24 -22 200 0 252
19 46 60 88 98 99 45 14 108 12 127 -3z m-3474 -792 c34 -22 81 -92 89 -133
39 -199 -89 -500 -230 -543 -51 -15 -58 -7 -98 117 -25 76 -33 119 -34 180 -3
200 63 352 171 390 41 15 65 12 102 -11z m2830 0 c26 -17 75 -82 104 -137 37
-74 43 -261 10 -347 -5 -14 -10 -28 -10 -33 -3 -75 -33 -144 -67 -157 -54 -20
-105 23 -198 168 -89 138 -108 312 -47 437 37 77 142 112 208 69z m-86 -746
l80 -77 -28 -48 c-87 -151 -96 -157 -181 -124 -36 14 -88 24 -138 27 -111 6
-126 8 -155 24 -66 35 -56 74 48 198 29 35 60 91 88 158 24 58 46 109 49 115
4 5 40 -37 82 -94 41 -56 111 -137 155 -179z m-2556 250 c21 -69 155 -315 183
-338 19 -15 72 -92 68 -97 -3 -3 -25 -7 -49 -8 -170 -12 -260 -28 -321 -56
-76 -34 -85 -29 -161 86 -57 87 -58 79 39 165 46 40 101 106 169 203 26 37 52
67 56 67 5 0 12 -10 16 -22z m224 -552 c196 -23 357 -152 346 -277 -9 -88 -64
-124 -186 -123 -98 2 -172 25 -260 83 -71 46 -240 209 -240 231 0 42 81 79
189 87 42 3 78 7 80 9 2 2 7 2 10 0 3 -2 31 -7 61 -10z m2142 -23 c53 -31 63
-92 21 -140 -27 -31 -198 -159 -256 -192 -142 -80 -269 -80 -347 0 -69 72 -66
127 14 216 100 110 201 144 408 139 103 -3 133 -7 160 -23z m-2560 -161 c4
-10 199 -168 268 -218 129 -92 271 -122 417 -88 108 25 155 76 169 184 4 30
14 66 22 79 14 20 21 23 61 18 25 -3 55 -8 66 -10 170 -43 228 -51 370 -49
119 1 266 27 354 62 29 11 61 18 72 15 10 -3 25 -27 35 -53 58 -159 131 -247
224 -267 153 -34 344 50 539 237 36 35 78 71 94 81 27 17 27 17 37 -8 48 -128
17 -266 -83 -367 -71 -72 -275 -163 -435 -194 -12 -2 -59 -13 -105 -24 -148
-35 -154 -34 -260 69 -38 36 -75 72 -82 79 -22 20 -125 76 -176 95 -156 59
-367 55 -508 -10 -73 -34 -168 -103 -236 -172 -51 -52 -79 -73 -105 -78 -44
-9 -46 -8 -215 32 -322 77 -479 163 -545 300 -21 42 -24 64 -24 145 0 91 13
150 33 150 5 0 11 -3 13 -8z m1856 -796 c12 -4 22 -15 23 -24 4 -65 4 -82 -4
-126 -17 -100 -77 -188 -142 -210 -55 -19 -113 -2 -138 41 -20 36 -25 105 -9
143 31 75 129 165 196 180 34 7 41 7 74 -4z m-892 -17 c24 -11 61 -38 82 -60
120 -119 97 -292 -37 -292 -76 0 -139 61 -176 169 -19 56 -21 169 -4 190 17
21 86 17 135 -7z"/>
<path d="M2947 3882 c1 -81 2 -159 2 -174 1 -24 5 -28 31 -28 23 0 33 6 40 26
48 125 142 243 196 245 16 1 66 3 112 4 l83 3 -3 -540 -3 -540 -27 -23 c-19
-16 -46 -26 -85 -30 -88 -10 -95 -13 -91 -43 l3 -27 302 -3 302 -2 -1 30 c-1
32 -7 35 -78 45 -61 9 -105 31 -118 60 -8 17 -12 185 -12 549 l0 524 98 -3
c53 -2 109 -8 123 -13 50 -19 128 -129 168 -234 9 -23 17 -28 43 -28 l33 0 -2
127 c-1 71 -2 149 -2 175 l-1 46 -557 1 -558 0 2 -147z"/>
<path d="M1450 2544 c-144 -53 -269 -201 -444 -527 -20 -37 -36 -69 -36 -71 0
-1 35 -1 78 0 42 2 147 4 232 5 89 1 185 8 225 16 192 40 296 144 296 298 0
116 -62 210 -170 258 -44 19 -151 32 -181 21z m139 -109 c72 -37 125 -124 116
-190 -10 -80 -105 -157 -228 -185 -23 -5 -93 -10 -155 -11 -124 -3 -144 5
-144 54 0 29 121 198 189 265 78 75 159 100 222 67z"/>
<path d="M5394 2530 c-73 -25 -88 -35 -132 -85 -45 -51 -67 -117 -64 -190 7
-153 102 -250 284 -288 67 -14 104 -16 395 -20 160 -3 161 -2 151 18 -27 52
-146 248 -191 315 -66 98 -178 207 -244 237 -68 31 -136 36 -199 13z m150
-104 c48 -20 108 -77 191 -181 80 -100 104 -141 99 -169 -5 -35 -26 -46 -68
-36 -22 5 -79 9 -127 9 -138 1 -221 25 -289 87 -46 41 -65 90 -55 142 24 127
138 195 249 148z"/>
<path d="M5674 1792 c-6 -4 -30 -32 -53 -62 -311 -398 -722 -699 -1171 -855
-165 -58 -416 -120 -570 -141 -25 -3 -54 -8 -65 -10 -97 -19 -490 -26 -637
-11 -475 47 -931 243 -1348 577 -118 95 -416 388 -460 453 -39 57 -93 62 -106
10 -8 -31 2 -49 76 -134 290 -336 577 -563 927 -735 143 -69 368 -155 472
-179 9 -2 52 -13 96 -24 44 -11 94 -23 110 -25 17 -3 41 -8 55 -11 13 -2 42
-7 65 -10 22 -4 54 -9 70 -11 70 -13 275 -28 360 -27 74 1 256 12 288 19 11 2
45 6 76 9 31 4 88 13 126 20 39 8 85 17 104 20 19 3 37 8 41 10 4 2 22 7 41
10 127 22 445 138 604 221 156 81 359 212 464 299 131 108 185 161 428 416 85
89 101 121 78 155 -15 24 -49 31 -71 16z"/>
</g>
</svg>
